<svg width="25" height="24" viewBox="0 0 25 24" fill="none" xmlns="http://www.w3.org/2000/svg">
<g clip-path="url(#clip0_18_304)">
<path d="M9.27274 19C4.97274 20.4 4.97274 16.5 3.27274 16M15.2727 21V17.5C15.2727 16.5 15.3727 16.1 14.7727 15.5C17.5727 15.2 20.2727 14.1 20.2727 9.49995C20.2715 8.30492 19.8053 7.15726 18.9727 6.29995C19.3632 5.26192 19.3273 4.11158 18.8727 3.09995C18.8727 3.09995 17.7727 2.79995 15.3727 4.39995C13.34 3.87054 11.2055 3.87054 9.17274 4.39995C6.77274 2.79995 5.67274 3.09995 5.67274 3.09995C5.21822 4.11158 5.18227 5.26192 5.57274 6.29995C4.74019 7.15726 4.27395 8.30492 4.27274 9.49995C4.27274 14.1 6.97274 15.2 9.77274 15.5C9.17274 16.1 9.17274 16.7 9.27274 17.5V21" stroke="black" stroke-width="2" stroke-linecap="round" stroke-linejoin="round"/>
</g>
<defs>
<clipPath id="clip0_18_304">
<rect width="24" height="24" fill="white" transform="translate(0.272736)"/>
</clipPath>
</defs>
</svg>
